<svg width="15" height="15" viewBox="0 0 15 15" fill="none" xmlns="http://www.w3.org/2000/svg">
<g clip-path="url(#clip0_282_1764)">
<path d="M14.5681 9.0904C15.6544 4.20915 11.3781 -0.225225 6.35625 0.626025C3.63 -1.06585 0 0.846025 0 4.08977C0 4.84415 0.208125 5.5504 0.57 6.15915C-0.439375 11.0517 3.87188 15.4223 8.88938 14.5129C12.4363 16.3885 16.3556 12.6479 14.5681 9.0904ZM9.79438 12.0341C8.47688 12.576 6.30875 12.5792 4.99688 11.8923C3.12625 10.8948 2.79375 8.64915 4.4075 8.64915C5.62375 8.64915 5.23875 10.0673 6.46688 10.6454C7.03063 10.906 8.2425 10.9329 8.94688 10.4579C9.6425 9.99228 9.57875 9.25978 9.20063 8.90977C8.19875 7.98478 5.33188 8.35227 4.02125 6.7329C3.45188 6.0304 3.34438 4.79102 4.04438 3.89227C5.26438 2.32227 8.84438 2.22665 10.3838 3.41227C11.805 4.51227 11.4213 5.97227 10.2744 5.97227C8.895 5.97227 9.62 4.16727 7.39313 4.16727C5.77875 4.16727 5.14375 5.3154 6.28063 5.87415C7.82188 6.63977 11.7494 6.38415 11.7494 9.37602C11.7463 10.621 10.9831 11.5491 9.79438 12.0341Z" fill="#00D9C8"/>
</g>
<defs>
<clipPath id="clip0_282_1764">
<rect width="15" height="15" fill="white"/>
</clipPath>
</defs>
</svg>
