<svg width="15" height="15" viewBox="0 0 15 15" fill="none" xmlns="http://www.w3.org/2000/svg">
<g clip-path="url(#clip0_282_1766)">
<path d="M13.4587 4.44562C14.0688 4.0125 14.5819 3.47187 15 2.84937V2.84875C14.4419 3.09312 13.8481 3.25562 13.2281 3.33437C13.8656 2.95375 14.3525 2.35562 14.5813 1.635C13.9869 1.98937 13.3306 2.23937 12.6312 2.37937C12.0669 1.77812 11.2625 1.40625 10.385 1.40625C8.6825 1.40625 7.31188 2.78812 7.31188 4.48187C7.31188 4.72562 7.3325 4.96 7.38312 5.18312C4.82687 5.05812 2.56437 3.83312 1.04437 1.96625C0.779375 2.42687 0.623125 2.95375 0.623125 3.52062C0.623125 4.58562 1.17125 5.52937 1.98938 6.07625C1.495 6.06687 1.01063 5.92312 0.6 5.6975V5.73125C0.6 7.22562 1.66562 8.46687 3.06375 8.75312C2.81312 8.82187 2.54063 8.85437 2.2575 8.85437C2.06063 8.85437 1.86188 8.84312 1.67562 8.80187C2.07375 10.0194 3.205 10.915 4.54875 10.9444C3.5025 11.7625 2.17375 12.2556 0.735625 12.2556C0.48375 12.2556 0.241875 12.2444 0 12.2137C1.3625 13.0919 2.97625 13.5937 4.7175 13.5937C10.1444 13.5937 13.6813 9.06625 13.4587 4.44562Z" fill="#00D9C8"/>
</g>
<defs>
<clipPath id="clip0_282_1766">
<rect width="15" height="15" fill="white"/>
</clipPath>
</defs>
</svg>
