<svg width="15" height="15" viewBox="0 0 15 15" fill="none" xmlns="http://www.w3.org/2000/svg">
<g clip-path="url(#clip0_282_1768)">
<path d="M14.6681 3.70563L14.6868 3.82813C14.5056 3.18501 14.0162 2.68876 13.3943 2.50813L13.3812 2.50501C12.2118 2.18751 7.50619 2.18751 7.50619 2.18751C7.50619 2.18751 2.81244 2.18126 1.63119 2.50501C0.99744 2.68876 0.50744 3.18501 0.329315 3.81501L0.32619 3.82813C-0.110685 6.11001 -0.11381 8.85188 0.345565 11.295L0.32619 11.1713C0.50744 11.8144 0.996815 12.3106 1.61869 12.4913L1.63181 12.4944C2.79994 12.8125 7.50682 12.8125 7.50682 12.8125C7.50682 12.8125 12.1999 12.8125 13.3818 12.4944C14.0162 12.3106 14.5062 11.8144 14.6843 11.1844L14.6874 11.1713C14.8862 10.11 14.9999 8.88876 14.9999 7.64126C14.9999 7.59563 14.9999 7.54938 14.9993 7.50313C14.9999 7.46063 14.9999 7.41001 14.9999 7.35938C14.9999 6.11126 14.8862 4.89001 14.6681 3.70563ZM6.00494 9.78188V5.22376L9.92119 7.50626L6.00494 9.78188Z" fill="#00D9C8"/>
</g>
<defs>
<clipPath id="clip0_282_1768">
<rect width="15" height="15" fill="white"/>
</clipPath>
</defs>
</svg>
