<svg width="14" height="16" viewBox="0 0 14 16" fill="none" xmlns="http://www.w3.org/2000/svg">
<path d="M12.8947 10.3496C12.0311 10.3496 11.1853 10.2069 10.3836 9.92683C9.99231 9.78409 9.548 9.89407 9.29085 10.1718L7.70148 11.4424C5.87779 10.412 4.71064 9.17726 3.75054 7.2608L4.91843 5.61812C5.21243 5.3069 5.31781 4.85137 5.19181 4.42472C4.92506 3.57062 4.78949 2.6744 4.78949 1.7618C4.78949 1.11673 4.29361 0.591797 3.68423 0.591797H1.10526C0.495884 0.591797 0 1.11673 0 1.7618C0 9.28801 5.78495 15.4118 12.8947 15.4118C13.5041 15.4118 14 14.8869 14 14.2418V11.5196C14 10.8745 13.5041 10.3496 12.8947 10.3496Z" fill="white"/>
</svg>
