<svg width="22" height="27" viewBox="0 0 22 27" fill="none" xmlns="http://www.w3.org/2000/svg">
<path fill-rule="evenodd" clip-rule="evenodd" d="M12.0281 26.6673C14.7613 24.7158 22 18.8805 22 11.8174C22 5.29137 17.0751 0.000976562 11 0.000976562C4.92487 0.000976562 0 5.29137 0 11.8174C0 18.8805 7.23871 24.7158 9.97188 26.6673C10.5917 27.1099 11.4083 27.1099 12.0281 26.6673ZM11.4955 16.6122C13.6877 16.6122 15.4649 14.7031 15.4649 12.3482C15.4649 9.99327 13.6877 8.08421 11.4955 8.08421C9.30328 8.08421 7.52612 9.99327 7.52612 12.3482C7.52612 14.7031 9.30328 16.6122 11.4955 16.6122Z" fill="#43B7B1"/>
</svg>
