<svg width="22" height="22" viewBox="0 0 22 22" fill="none" xmlns="http://www.w3.org/2000/svg">
<path d="M20.2632 14.4863C18.9061 14.4863 17.5769 14.2744 16.317 13.8587C15.7022 13.6468 15.004 13.81 14.5999 14.2222L12.1023 16.1085C9.23653 14.5789 7.40243 12.7459 5.89371 9.90098L7.72895 7.46246C8.19095 7.00046 8.35655 6.32423 8.15855 5.69088C7.73937 4.42298 7.52634 3.09256 7.52634 1.73782C7.52634 0.780222 6.74709 0.000976562 5.7895 0.000976562H1.73684C0.779246 0.000976562 0 0.780222 0 1.73782C0 12.9103 9.09064 22.001 20.2632 22.001C21.2208 22.001 22 21.2217 22 20.2641V16.2231C22 15.2655 21.2208 14.4863 20.2632 14.4863Z" fill="#43B7B1"/>
</svg>
