<svg width="12" height="17" viewBox="0 0 12 17" fill="none" xmlns="http://www.w3.org/2000/svg">
<path d="M5.51351 0.591797C2.47334 0.591797 0 3.15225 0 6.29945C0 10.2052 4.93405 15.9391 5.14412 16.1813C5.34144 16.4088 5.68594 16.4084 5.8829 16.1813C6.09297 15.9391 11.027 10.2052 11.027 6.29945C11.027 3.15225 8.55365 0.591797 5.51351 0.591797ZM5.51351 9.17113C3.98393 9.17113 2.73955 7.8829 2.73955 6.29945C2.73955 4.716 3.98396 3.4278 5.51351 3.4278C7.04307 3.4278 8.28744 4.71603 8.28744 6.29948C8.28744 7.88293 7.04307 9.17113 5.51351 9.17113Z" fill="white"/>
</svg>
