<svg width="34" height="22" viewBox="0 0 34 22" fill="none" xmlns="http://www.w3.org/2000/svg">
<path d="M14.5229 0.00244141V5.45752C13.02 5.45752 11.8882 5.6709 11.1274 6.09766C10.3481 6.56152 9.86572 7.09033 9.68018 7.68408C9.47607 8.27783 9.35547 9.45605 9.31836 11.2188H14.5229V21.3774H0.634766V12.7217C0.634766 9.58594 0.746094 7.45215 0.96875 6.32031C1.19141 5.16992 1.84082 4.02881 2.91699 2.89697C3.99316 1.80225 5.30127 1.0415 6.84131 0.614746C8.34424 0.206543 10.9048 0.00244141 14.5229 0.00244141ZM33.3096 0.00244141V5.45752C31.8252 5.45752 30.7026 5.6709 29.9419 6.09766C29.144 6.54297 28.6523 7.07178 28.4668 7.68408C28.2627 8.29639 28.1514 9.47461 28.1328 11.2188H33.3096V21.3774H19.4492V12.7217C19.4492 9.58594 19.5605 7.45215 19.7832 6.32031C20.0059 5.16992 20.6553 4.02881 21.7314 2.89697C22.8076 1.80225 24.1157 1.0415 25.6558 0.614746C27.1587 0.206543 29.71 0.00244141 33.3096 0.00244141Z" fill="#D9D9D9"/>
</svg>
