<svg width="16" height="15" viewBox="0 0 16 15" fill="none" xmlns="http://www.w3.org/2000/svg">
<g clip-path="url(#clip0_237_470)">
<path d="M15.5633 8.84283C16.6495 4.095 12.3736 -0.218173 7.35209 0.60981C4.62605 -1.03582 0.996338 0.823797 0.996338 3.97888C0.996338 4.71264 1.20445 5.39959 1.56629 5.9917C0.556997 10.7505 4.86791 15.0016 9.88502 14.1171C13.4316 15.9415 17.3507 12.3031 15.5633 8.84283ZM10.7899 11.7061C9.47255 12.2332 7.30459 12.2362 5.99282 11.5681C4.12234 10.5979 3.78987 8.41364 5.40349 8.41364C6.61965 8.41364 6.23468 9.793 7.46271 10.3553C8.02641 10.6088 9.23819 10.635 9.94251 10.1729C10.6381 9.72005 10.5743 9.00757 10.1962 8.66714C9.19445 7.76742 6.3278 8.12488 5.01727 6.54976C4.44794 5.86647 4.34045 4.66097 5.0404 3.78678C6.2603 2.2597 9.84002 2.16668 11.3793 3.3199C12.8004 4.38984 12.4167 5.80993 11.2699 5.80993C9.89064 5.80993 10.6156 4.05427 8.38888 4.05427C6.77464 4.05427 6.13969 5.17101 7.27647 5.71449C8.8176 6.45919 12.7448 6.21055 12.7448 9.12064C12.7417 10.3316 11.9786 11.2344 10.7899 11.7061Z" fill="#E1E1E1"/>
</g>
<defs>
<clipPath id="clip0_237_470">
<rect width="14.9988" height="14.59" fill="white" transform="translate(0.996338)"/>
</clipPath>
</defs>
</svg>
