<svg width="16" height="17" viewBox="0 0 16 17" fill="none" xmlns="http://www.w3.org/2000/svg">
<g clip-path="url(#clip0_237_472)">
<path d="M14.4565 5.28049C15.0664 4.80146 15.5795 4.20353 15.9976 3.51504V3.51435C15.4395 3.78463 14.8458 3.96435 14.2259 4.05145C14.8633 3.63048 15.3502 2.96895 15.5789 2.17194C14.9846 2.56388 14.3284 2.84038 13.629 2.99522C13.0647 2.33024 12.2604 1.91895 11.383 1.91895C9.6806 1.91895 8.31008 3.4473 8.31008 5.32059C8.31008 5.59017 8.3307 5.84939 8.38133 6.09617C5.82528 5.95792 3.56295 4.60307 2.04307 2.53831C1.77809 3.04776 1.62186 3.63048 1.62186 4.25744C1.62186 5.43533 2.16994 6.47912 2.988 7.08397C2.49366 7.0736 2.00933 6.91461 1.59873 6.66507V6.70239C1.59873 8.35517 2.66427 9.728 4.06229 10.0446C3.81168 10.1206 3.53921 10.1566 3.2561 10.1566C3.05924 10.1566 2.86051 10.1441 2.67427 10.0985C3.07237 11.4451 4.20353 12.4356 5.54717 12.4681C4.501 13.373 3.17236 13.9184 1.73435 13.9184C1.48249 13.9184 1.24064 13.9059 0.998779 13.872C2.36117 14.8432 3.9748 15.3983 5.71591 15.3983C11.1424 15.3983 14.679 10.3909 14.4565 5.28049Z" fill="#E1E1E1"/>
</g>
<defs>
<clipPath id="clip0_237_472">
<rect width="14.9988" height="16.59" fill="white" transform="translate(0.998779 0.363281)"/>
</clipPath>
</defs>
</svg>
