<svg width="16" height="20" viewBox="0 0 16 20" fill="none" xmlns="http://www.w3.org/2000/svg">
<g clip-path="url(#clip0_237_474)">
<path d="M15.6646 5.20241L15.6833 5.36239C15.5021 4.52247 15.0128 3.87437 14.3909 3.63847L14.3778 3.63439C13.2085 3.21974 8.50328 3.21974 8.50328 3.21974C8.50328 3.21974 3.8099 3.21158 2.62874 3.63439C1.99504 3.87437 1.50508 4.52247 1.32697 5.34525L1.32384 5.36239C0.887004 8.34252 0.883879 11.9234 1.34322 15.1141L1.32384 14.9525C1.50508 15.7924 1.99442 16.4405 2.61624 16.6764L2.62937 16.6805C3.7974 17.096 8.50391 17.096 8.50391 17.096C8.50391 17.096 13.1967 17.096 14.3784 16.6805C15.0128 16.4405 15.5027 15.7924 15.6808 14.9697L15.684 14.9525C15.8827 13.5665 15.9964 11.9716 15.9964 10.3423C15.9964 10.2827 15.9964 10.2223 15.9958 10.1619C15.9964 10.1064 15.9964 10.0403 15.9964 9.97421C15.9964 8.34416 15.8827 6.7492 15.6646 5.20241ZM7.00215 13.138V7.18508L10.9181 10.166L7.00215 13.138Z" fill="#E1E1E1"/>
</g>
<defs>
<clipPath id="clip0_237_474">
<rect width="14.9988" height="19.59" fill="white" transform="translate(0.997559 0.363281)"/>
</clipPath>
</defs>
</svg>
